<svg xmlns="http://www.w3.org/2000/svg" xmlns:xlink="http://www.w3.org/1999/xlink" viewBox="0 0 464 632" width="464" height="632"><title>Juwilata United — carta Entrenador TIZA</title><defs><style>.bc{font-family:'Barlow Condensed','Arial Narrow',sans-serif}</style>

<symbol id="escudo" viewBox="0 0 160 246" preserveAspectRatio="xMidYMid meet"><image width="160" height="246" href="__ESCUDO__"/></symbol>
<clipPath id="card"><path d="M0.00,72.47C3.96,72.54 22.08,68.08 31.56,62.39C41.04,56.70 54.66,47.54 59.03,44.53C62.75,41.97 73.79,34.23 82.77,28.07C91.74,21.92 96.44,20.48 107.50,14.33C118.56,8.18 138.03,2.66 138.03,2.66C138.03,2.66 141.45,6.46 142.59,8.34C143.81,10.33 150.90,16.23 166.07,15.68C181.24,15.13 192.98,0.00 192.98,0.00C192.98,0.00 195.04,2.80 196.90,4.67C199.16,6.96 208.75,16.02 221.64,15.72C234.54,15.43 237.96,12.42 241.53,10.65C245.11,8.88 248.52,4.33 248.52,4.33C248.52,4.33 252.73,2.86 267.60,9.03C281.80,14.92 296.98,24.00 334.98,50.25C367.03,72.38 383.91,71.53 383.91,71.53C383.91,71.53 383.98,449.74 383.91,465.72C383.85,481.53 373.10,487.98 366.96,488.75C360.82,489.52 311.51,506.45 296.90,509.33C282.30,512.21 243.32,527.61 231.15,531.94C226.03,533.76 217.56,537.68 209.99,541.72C201.27,546.38 193.74,551.09 193.74,551.09C193.74,551.09 176.59,540.58 161.09,533.44C145.58,526.30 37.98,495.28 20.46,491.48C2.95,487.68 0.00,472.75 0.00,472.75L0.00,72.47Z"/></clipPath>
<linearGradient id="gPhotoFade" x1="0" y1="0" x2="0" y2="1"><stop offset="0" stop-color="#fff"/><stop offset=".78" stop-color="#fff"/><stop offset="1" stop-color="#000"/></linearGradient>
<mask id="mPhoto" maskContentUnits="objectBoundingBox"><rect width="1" height="1" fill="url(#gPhotoFade)"/></mask>
<linearGradient id="gFadeDown" x1="0" y1="0" x2="0" y2="1"><stop offset="0" stop-color="#fff"/><stop offset=".75" stop-color="#000"/></linearGradient>
<mask id="mFadeDown" maskContentUnits="objectBoundingBox"><rect width="1" height="1" fill="url(#gFadeDown)"/></mask>
<filter id="fShadow" x="-20%" y="-20%" width="140%" height="140%"><feDropShadow dx="0" dy="1.5" stdDeviation="1.5" flood-color="#000" flood-opacity=".4"/></filter>
<filter id="fCard" x="-20%" y="-20%" width="140%" height="140%"><feDropShadow dx="0" dy="14" stdDeviation="14" flood-color="#000" flood-opacity=".55"/></filter>
<filter id="fGlow" x="-20%" y="-20%" width="140%" height="140%"><feGaussianBlur stdDeviation="4"/></filter>
<filter id="fSoft" x="-50%" y="-50%" width="200%" height="200%"><feGaussianBlur stdDeviation="1.2"/></filter><linearGradient id="c_base" x1="0" y1="0" x2=".4" y2="1"><stop offset="0" stop-color="#2c4336"/><stop offset=".55" stop-color="#1f3228"/><stop offset="1" stop-color="#14211a"/></linearGradient><radialGradient id="c_vig" cx="192" cy="240" r="330" gradientUnits="userSpaceOnUse"><stop offset=".55" stop-color="#0a120d" stop-opacity="0"/><stop offset="1" stop-color="#0a120d" stop-opacity=".6"/></radialGradient><filter id="fChalk" x="-5%" y="-5%" width="110%" height="110%"><feTurbulence type="fractalNoise" baseFrequency="0.9" numOctaves="2" seed="3" result="n"/><feDisplacementMap in="SourceGraphic" in2="n" scale="2.2" xChannelSelector="R" yChannelSelector="G"/></filter><filter id="fSmudge"><feGaussianBlur stdDeviation="6"/></filter><linearGradient id="c_panel" x1="0" y1="340" x2="0" y2="552" gradientUnits="userSpaceOnUse"><stop offset="0" stop-color="#0e1712" stop-opacity="0"/><stop offset=".3" stop-color="#0e1712" stop-opacity=".82"/><stop offset=".6" stop-color="#0e1712" stop-opacity=".95"/><stop offset="1" stop-color="#0b120e"/></linearGradient><linearGradient id="c_rule" x1="30" y1="0" x2="354" y2="0" gradientUnits="userSpaceOnUse"><stop offset="0" stop-color="#e9e6da" stop-opacity="0"/><stop offset=".5" stop-color="#e9e6da" stop-opacity=".8"/><stop offset="1" stop-color="#e9e6da" stop-opacity="0"/></linearGradient><linearGradient id="c_rim" x1="0" y1="0" x2="1" y2="1"><stop offset="0" stop-color="#7a5230"/><stop offset=".5" stop-color="#4f3219"/><stop offset="1" stop-color="#2a1a0c"/></linearGradient><linearGradient id="c_bevel" x1="0" y1="0" x2="1" y2="1"><stop offset="0" stop-color="#c79a6a"/><stop offset=".3" stop-color="#8a5d34"/><stop offset=".55" stop-color="#b58454"/><stop offset=".8" stop-color="#6e4623"/><stop offset="1" stop-color="#3e2610"/></linearGradient></defs><g transform="translate(40,36)"><g id="carta_entrenador"><path d="M0.00,72.47C3.96,72.54 22.08,68.08 31.56,62.39C41.04,56.70 54.66,47.54 59.03,44.53C62.75,41.97 73.79,34.23 82.77,28.07C91.74,21.92 96.44,20.48 107.50,14.33C118.56,8.18 138.03,2.66 138.03,2.66C138.03,2.66 141.45,6.46 142.59,8.34C143.81,10.33 150.90,16.23 166.07,15.68C181.24,15.13 192.98,0.00 192.98,0.00C192.98,0.00 195.04,2.80 196.90,4.67C199.16,6.96 208.75,16.02 221.64,15.72C234.54,15.43 237.96,12.42 241.53,10.65C245.11,8.88 248.52,4.33 248.52,4.33C248.52,4.33 252.73,2.86 267.60,9.03C281.80,14.92 296.98,24.00 334.98,50.25C367.03,72.38 383.91,71.53 383.91,71.53C383.91,71.53 383.98,449.74 383.91,465.72C383.85,481.53 373.10,487.98 366.96,488.75C360.82,489.52 311.51,506.45 296.90,509.33C282.30,512.21 243.32,527.61 231.15,531.94C226.03,533.76 217.56,537.68 209.99,541.72C201.27,546.38 193.74,551.09 193.74,551.09C193.74,551.09 176.59,540.58 161.09,533.44C145.58,526.30 37.98,495.28 20.46,491.48C2.95,487.68 0.00,472.75 0.00,472.75L0.00,72.47Z" fill="#000" filter="url(#fCard)"/><g id="fondo" clip-path="url(#card)"><rect width="384" height="552" fill="url(#c_base)"/><g filter="url(#fSmudge)"><ellipse cx="52" cy="468" rx="76" ry="13" fill="#dfe7df" fill-opacity="0.050" transform="rotate(-3 52 468)"/><ellipse cx="250" cy="435" rx="36" ry="9" fill="#dfe7df" fill-opacity="0.063" transform="rotate(-3 250 435)"/><ellipse cx="293" cy="1" rx="57" ry="21" fill="#dfe7df" fill-opacity="0.039" transform="rotate(22 293 1)"/><ellipse cx="346" cy="17" rx="32" ry="18" fill="#dfe7df" fill-opacity="0.068" transform="rotate(-6 346 17)"/><ellipse cx="83" cy="233" rx="32" ry="12" fill="#dfe7df" fill-opacity="0.048" transform="rotate(-0 83 233)"/><ellipse cx="90" cy="127" rx="43" ry="16" fill="#dfe7df" fill-opacity="0.042" transform="rotate(-24 90 127)"/><ellipse cx="322" cy="307" rx="69" ry="11" fill="#dfe7df" fill-opacity="0.070" transform="rotate(18 322 307)"/><ellipse cx="46" cy="184" rx="73" ry="21" fill="#dfe7df" fill-opacity="0.067" transform="rotate(-4 46 184)"/><ellipse cx="319" cy="370" rx="48" ry="19" fill="#dfe7df" fill-opacity="0.065" transform="rotate(17 319 370)"/><ellipse cx="194" cy="325" rx="32" ry="12" fill="#dfe7df" fill-opacity="0.062" transform="rotate(-4 194 325)"/><ellipse cx="66" cy="303" rx="72" ry="20" fill="#dfe7df" fill-opacity="0.045" transform="rotate(-3 66 303)"/><ellipse cx="195" cy="430" rx="61" ry="15" fill="#dfe7df" fill-opacity="0.050" transform="rotate(-24 195 430)"/><ellipse cx="17" cy="388" rx="89" ry="19" fill="#dfe7df" fill-opacity="0.046" transform="rotate(-16 17 388)"/><ellipse cx="193" cy="542" rx="76" ry="18" fill="#dfe7df" fill-opacity="0.064" transform="rotate(-13 193 542)"/></g><circle cx="197.3" cy="525.8" r="0.76" fill="#eef2ea" fill-opacity="0.13"/><circle cx="103.4" cy="302.5" r="1.07" fill="#eef2ea" fill-opacity="0.05"/><circle cx="300.9" cy="452.9" r="1.01" fill="#eef2ea" fill-opacity="0.18"/><circle cx="310.7" cy="286.3" r="0.75" fill="#eef2ea" fill-opacity="0.12"/><circle cx="21.6" cy="480.2" r="0.76" fill="#eef2ea" fill-opacity="0.08"/><circle cx="193.8" cy="267.7" r="0.59" fill="#eef2ea" fill-opacity="0.11"/><circle cx="206.8" cy="344.2" r="0.79" fill="#eef2ea" fill-opacity="0.13"/><circle cx="10.7" cy="126.7" r="0.44" fill="#eef2ea" fill-opacity="0.15"/><circle cx="330.6" cy="440.7" r="0.94" fill="#eef2ea" fill-opacity="0.19"/><circle cx="98.0" cy="464.6" r="0.84" fill="#eef2ea" fill-opacity="0.06"/><circle cx="6.4" cy="8.0" r="0.90" fill="#eef2ea" fill-opacity="0.09"/><circle cx="42.0" cy="344.9" r="0.58" fill="#eef2ea" fill-opacity="0.06"/><circle cx="61.3" cy="291.1" r="0.43" fill="#eef2ea" fill-opacity="0.10"/><circle cx="273.3" cy="251.0" r="0.56" fill="#eef2ea" fill-opacity="0.13"/><circle cx="9.1" cy="213.4" r="0.64" fill="#eef2ea" fill-opacity="0.08"/><circle cx="41.8" cy="496.7" r="0.71" fill="#eef2ea" fill-opacity="0.09"/><circle cx="232.6" cy="451.0" r="0.32" fill="#eef2ea" fill-opacity="0.05"/><circle cx="56.2" cy="396.8" r="0.43" fill="#eef2ea" fill-opacity="0.17"/><circle cx="260.4" cy="300.7" r="0.48" fill="#eef2ea" fill-opacity="0.22"/><circle cx="306.4" cy="285.2" r="0.48" fill="#eef2ea" fill-opacity="0.16"/><circle cx="151.6" cy="317.9" r="0.56" fill="#eef2ea" fill-opacity="0.16"/><circle cx="22.6" cy="164.8" r="1.07" fill="#eef2ea" fill-opacity="0.20"/><circle cx="117.7" cy="473.9" r="0.55" fill="#eef2ea" fill-opacity="0.21"/><circle cx="285.6" cy="229.7" r="0.50" fill="#eef2ea" fill-opacity="0.05"/><circle cx="337.4" cy="20.9" r="0.96" fill="#eef2ea" fill-opacity="0.21"/><circle cx="219.0" cy="94.7" r="0.99" fill="#eef2ea" fill-opacity="0.22"/><circle cx="270.3" cy="280.9" r="0.60" fill="#eef2ea" fill-opacity="0.11"/><circle cx="79.0" cy="372.1" r="0.65" fill="#eef2ea" fill-opacity="0.08"/><circle cx="40.1" cy="367.6" r="0.54" fill="#eef2ea" fill-opacity="0.13"/><circle cx="124.9" cy="481.1" r="1.02" fill="#eef2ea" fill-opacity="0.05"/><circle cx="77.1" cy="180.9" r="1.09" fill="#eef2ea" fill-opacity="0.18"/><circle cx="130.2" cy="117.6" r="0.84" fill="#eef2ea" fill-opacity="0.19"/><circle cx="358.0" cy="189.8" r="1.01" fill="#eef2ea" fill-opacity="0.17"/><circle cx="186.0" cy="544.0" r="0.49" fill="#eef2ea" fill-opacity="0.17"/><circle cx="32.5" cy="93.7" r="1.03" fill="#eef2ea" fill-opacity="0.09"/><circle cx="291.5" cy="331.3" r="0.97" fill="#eef2ea" fill-opacity="0.11"/><circle cx="130.7" cy="160.8" r="0.99" fill="#eef2ea" fill-opacity="0.15"/><circle cx="366.5" cy="489.8" r="0.41" fill="#eef2ea" fill-opacity="0.14"/><circle cx="40.0" cy="21.6" r="0.36" fill="#eef2ea" fill-opacity="0.20"/><circle cx="302.6" cy="457.3" r="0.57" fill="#eef2ea" fill-opacity="0.15"/><circle cx="300.3" cy="208.7" r="0.76" fill="#eef2ea" fill-opacity="0.09"/><circle cx="31.4" cy="147.2" r="1.01" fill="#eef2ea" fill-opacity="0.15"/><circle cx="355.2" cy="252.7" r="0.52" fill="#eef2ea" fill-opacity="0.18"/><circle cx="317.9" cy="6.8" r="0.84" fill="#eef2ea" fill-opacity="0.07"/><circle cx="44.2" cy="488.6" r="0.33" fill="#eef2ea" fill-opacity="0.09"/><circle cx="379.5" cy="232.4" r="0.39" fill="#eef2ea" fill-opacity="0.08"/><circle cx="92.7" cy="410.7" r="0.38" fill="#eef2ea" fill-opacity="0.20"/><circle cx="145.3" cy="535.6" r="1.03" fill="#eef2ea" fill-opacity="0.10"/><circle cx="97.3" cy="263.3" r="0.38" fill="#eef2ea" fill-opacity="0.16"/><circle cx="15.2" cy="5.8" r="1.09" fill="#eef2ea" fill-opacity="0.10"/><circle cx="229.1" cy="248.3" r="0.55" fill="#eef2ea" fill-opacity="0.06"/><circle cx="350.7" cy="535.3" r="1.08" fill="#eef2ea" fill-opacity="0.07"/><circle cx="82.6" cy="341.0" r="1.08" fill="#eef2ea" fill-opacity="0.14"/><circle cx="264.3" cy="365.3" r="0.51" fill="#eef2ea" fill-opacity="0.14"/><circle cx="118.0" cy="136.0" r="0.37" fill="#eef2ea" fill-opacity="0.10"/><circle cx="377.6" cy="247.2" r="0.82" fill="#eef2ea" fill-opacity="0.16"/><circle cx="361.2" cy="215.5" r="0.55" fill="#eef2ea" fill-opacity="0.11"/><circle cx="121.6" cy="467.6" r="1.01" fill="#eef2ea" fill-opacity="0.10"/><circle cx="128.4" cy="300.4" r="0.76" fill="#eef2ea" fill-opacity="0.15"/><circle cx="94.1" cy="11.2" r="0.50" fill="#eef2ea" fill-opacity="0.06"/><circle cx="211.7" cy="39.1" r="0.36" fill="#eef2ea" fill-opacity="0.16"/><circle cx="111.7" cy="437.3" r="0.69" fill="#eef2ea" fill-opacity="0.20"/><circle cx="59.2" cy="276.8" r="0.94" fill="#eef2ea" fill-opacity="0.06"/><circle cx="364.5" cy="95.6" r="0.92" fill="#eef2ea" fill-opacity="0.22"/><circle cx="315.5" cy="176.5" r="0.39" fill="#eef2ea" fill-opacity="0.14"/><circle cx="353.0" cy="162.0" r="1.02" fill="#eef2ea" fill-opacity="0.07"/><circle cx="349.6" cy="17.5" r="0.55" fill="#eef2ea" fill-opacity="0.20"/><circle cx="308.7" cy="500.7" r="0.97" fill="#eef2ea" fill-opacity="0.18"/><circle cx="264.8" cy="98.3" r="0.65" fill="#eef2ea" fill-opacity="0.08"/><circle cx="274.5" cy="368.6" r="0.50" fill="#eef2ea" fill-opacity="0.06"/><circle cx="369.9" cy="446.2" r="0.74" fill="#eef2ea" fill-opacity="0.14"/><circle cx="326.9" cy="250.2" r="0.62" fill="#eef2ea" fill-opacity="0.11"/><circle cx="99.1" cy="13.5" r="0.82" fill="#eef2ea" fill-opacity="0.12"/><circle cx="219.1" cy="34.4" r="0.58" fill="#eef2ea" fill-opacity="0.07"/><circle cx="48.0" cy="143.0" r="0.96" fill="#eef2ea" fill-opacity="0.12"/><circle cx="154.0" cy="338.1" r="0.49" fill="#eef2ea" fill-opacity="0.05"/><circle cx="203.0" cy="276.5" r="0.82" fill="#eef2ea" fill-opacity="0.12"/><circle cx="263.6" cy="403.7" r="0.49" fill="#eef2ea" fill-opacity="0.13"/><circle cx="183.9" cy="124.2" r="0.63" fill="#eef2ea" fill-opacity="0.15"/><circle cx="348.3" cy="506.6" r="0.52" fill="#eef2ea" fill-opacity="0.16"/><circle cx="18.5" cy="39.5" r="0.71" fill="#eef2ea" fill-opacity="0.20"/><circle cx="61.2" cy="422.8" r="1.01" fill="#eef2ea" fill-opacity="0.10"/><circle cx="265.9" cy="468.6" r="0.60" fill="#eef2ea" fill-opacity="0.17"/><circle cx="282.8" cy="328.2" r="0.99" fill="#eef2ea" fill-opacity="0.20"/><circle cx="368.7" cy="315.3" r="0.44" fill="#eef2ea" fill-opacity="0.09"/><circle cx="83.6" cy="314.4" r="0.91" fill="#eef2ea" fill-opacity="0.06"/><circle cx="261.7" cy="395.9" r="0.58" fill="#eef2ea" fill-opacity="0.14"/><circle cx="63.3" cy="402.9" r="0.33" fill="#eef2ea" fill-opacity="0.22"/><circle cx="310.3" cy="346.9" r="0.51" fill="#eef2ea" fill-opacity="0.21"/><circle cx="368.4" cy="76.8" r="0.92" fill="#eef2ea" fill-opacity="0.19"/><circle cx="253.3" cy="386.6" r="0.66" fill="#eef2ea" fill-opacity="0.21"/><circle cx="372.9" cy="211.1" r="0.94" fill="#eef2ea" fill-opacity="0.12"/><circle cx="63.3" cy="179.7" r="0.40" fill="#eef2ea" fill-opacity="0.20"/><circle cx="368.4" cy="65.8" r="0.78" fill="#eef2ea" fill-opacity="0.12"/><circle cx="45.3" cy="163.1" r="0.50" fill="#eef2ea" fill-opacity="0.18"/><circle cx="1.5" cy="104.8" r="0.65" fill="#eef2ea" fill-opacity="0.05"/><circle cx="241.0" cy="334.3" r="0.97" fill="#eef2ea" fill-opacity="0.09"/><circle cx="109.4" cy="299.4" r="0.52" fill="#eef2ea" fill-opacity="0.15"/><circle cx="96.3" cy="377.3" r="0.93" fill="#eef2ea" fill-opacity="0.19"/><circle cx="373.9" cy="301.0" r="0.69" fill="#eef2ea" fill-opacity="0.20"/><circle cx="295.3" cy="314.9" r="0.61" fill="#eef2ea" fill-opacity="0.10"/><circle cx="41.5" cy="445.8" r="0.39" fill="#eef2ea" fill-opacity="0.18"/><circle cx="209.4" cy="532.6" r="0.91" fill="#eef2ea" fill-opacity="0.22"/><circle cx="52.5" cy="276.2" r="0.76" fill="#eef2ea" fill-opacity="0.10"/><circle cx="193.2" cy="197.0" r="0.72" fill="#eef2ea" fill-opacity="0.05"/><circle cx="169.8" cy="248.2" r="0.54" fill="#eef2ea" fill-opacity="0.12"/><circle cx="300.7" cy="377.2" r="0.69" fill="#eef2ea" fill-opacity="0.16"/><circle cx="145.0" cy="112.6" r="0.30" fill="#eef2ea" fill-opacity="0.10"/><circle cx="229.7" cy="486.7" r="0.96" fill="#eef2ea" fill-opacity="0.14"/><circle cx="379.0" cy="254.8" r="0.97" fill="#eef2ea" fill-opacity="0.12"/><circle cx="285.9" cy="545.2" r="0.54" fill="#eef2ea" fill-opacity="0.08"/><circle cx="238.1" cy="293.1" r="0.59" fill="#eef2ea" fill-opacity="0.05"/><circle cx="149.4" cy="235.1" r="0.62" fill="#eef2ea" fill-opacity="0.20"/><circle cx="224.4" cy="405.1" r="1.02" fill="#eef2ea" fill-opacity="0.18"/><circle cx="189.2" cy="411.7" r="0.81" fill="#eef2ea" fill-opacity="0.16"/><circle cx="241.8" cy="224.7" r="0.80" fill="#eef2ea" fill-opacity="0.16"/><circle cx="359.9" cy="431.9" r="0.98" fill="#eef2ea" fill-opacity="0.18"/><circle cx="313.1" cy="334.2" r="0.58" fill="#eef2ea" fill-opacity="0.09"/><circle cx="271.9" cy="482.4" r="0.74" fill="#eef2ea" fill-opacity="0.08"/><circle cx="319.9" cy="267.5" r="0.67" fill="#eef2ea" fill-opacity="0.06"/><circle cx="195.9" cy="411.1" r="0.64" fill="#eef2ea" fill-opacity="0.11"/><circle cx="252.2" cy="10.9" r="0.71" fill="#eef2ea" fill-opacity="0.21"/><circle cx="265.1" cy="221.9" r="0.85" fill="#eef2ea" fill-opacity="0.15"/><circle cx="80.2" cy="114.7" r="1.01" fill="#eef2ea" fill-opacity="0.10"/><circle cx="28.8" cy="458.5" r="0.72" fill="#eef2ea" fill-opacity="0.11"/><circle cx="196.4" cy="406.7" r="0.43" fill="#eef2ea" fill-opacity="0.16"/><circle cx="274.0" cy="449.9" r="0.52" fill="#eef2ea" fill-opacity="0.15"/><circle cx="89.1" cy="309.7" r="0.44" fill="#eef2ea" fill-opacity="0.18"/><circle cx="332.8" cy="182.0" r="0.48" fill="#eef2ea" fill-opacity="0.21"/><circle cx="271.4" cy="465.8" r="0.32" fill="#eef2ea" fill-opacity="0.20"/><circle cx="239.0" cy="174.7" r="0.65" fill="#eef2ea" fill-opacity="0.18"/><circle cx="301.6" cy="104.8" r="0.80" fill="#eef2ea" fill-opacity="0.08"/><circle cx="373.7" cy="244.9" r="1.03" fill="#eef2ea" fill-opacity="0.17"/><circle cx="232.8" cy="144.6" r="0.72" fill="#eef2ea" fill-opacity="0.07"/><circle cx="53.0" cy="395.1" r="0.59" fill="#eef2ea" fill-opacity="0.18"/><circle cx="92.3" cy="396.4" r="0.87" fill="#eef2ea" fill-opacity="0.10"/><circle cx="40.9" cy="219.1" r="0.69" fill="#eef2ea" fill-opacity="0.07"/><circle cx="71.7" cy="30.5" r="0.78" fill="#eef2ea" fill-opacity="0.20"/><circle cx="83.2" cy="19.2" r="0.86" fill="#eef2ea" fill-opacity="0.19"/><circle cx="370.2" cy="338.5" r="0.57" fill="#eef2ea" fill-opacity="0.19"/><circle cx="45.3" cy="382.3" r="0.38" fill="#eef2ea" fill-opacity="0.12"/><circle cx="190.1" cy="208.6" r="0.43" fill="#eef2ea" fill-opacity="0.09"/><circle cx="314.9" cy="255.3" r="0.76" fill="#eef2ea" fill-opacity="0.09"/><circle cx="274.5" cy="182.2" r="0.77" fill="#eef2ea" fill-opacity="0.20"/><circle cx="381.8" cy="25.5" r="0.94" fill="#eef2ea" fill-opacity="0.20"/><circle cx="122.7" cy="211.5" r="0.76" fill="#eef2ea" fill-opacity="0.21"/><circle cx="153.6" cy="485.8" r="0.91" fill="#eef2ea" fill-opacity="0.08"/><circle cx="350.9" cy="8.4" r="0.42" fill="#eef2ea" fill-opacity="0.16"/><circle cx="21.9" cy="209.5" r="0.40" fill="#eef2ea" fill-opacity="0.13"/><circle cx="322.6" cy="500.2" r="0.33" fill="#eef2ea" fill-opacity="0.06"/><circle cx="322.8" cy="23.6" r="0.52" fill="#eef2ea" fill-opacity="0.07"/><circle cx="35.0" cy="15.2" r="0.81" fill="#eef2ea" fill-opacity="0.18"/><circle cx="263.7" cy="466.8" r="0.83" fill="#eef2ea" fill-opacity="0.12"/><circle cx="242.3" cy="535.2" r="0.81" fill="#eef2ea" fill-opacity="0.09"/><circle cx="23.1" cy="516.2" r="0.77" fill="#eef2ea" fill-opacity="0.11"/><circle cx="232.5" cy="309.3" r="0.72" fill="#eef2ea" fill-opacity="0.06"/><circle cx="135.6" cy="227.8" r="0.46" fill="#eef2ea" fill-opacity="0.20"/><circle cx="162.9" cy="365.6" r="0.87" fill="#eef2ea" fill-opacity="0.18"/><circle cx="276.9" cy="415.2" r="0.50" fill="#eef2ea" fill-opacity="0.22"/><circle cx="58.0" cy="507.1" r="0.98" fill="#eef2ea" fill-opacity="0.19"/><circle cx="20.3" cy="50.4" r="0.95" fill="#eef2ea" fill-opacity="0.13"/><circle cx="142.2" cy="543.5" r="0.33" fill="#eef2ea" fill-opacity="0.14"/><circle cx="170.2" cy="70.8" r="0.62" fill="#eef2ea" fill-opacity="0.17"/><circle cx="338.8" cy="13.6" r="0.72" fill="#eef2ea" fill-opacity="0.07"/><circle cx="307.4" cy="47.4" r="0.33" fill="#eef2ea" fill-opacity="0.12"/><circle cx="281.3" cy="172.9" r="0.40" fill="#eef2ea" fill-opacity="0.19"/><circle cx="309.9" cy="472.4" r="0.54" fill="#eef2ea" fill-opacity="0.12"/><circle cx="94.2" cy="307.6" r="0.56" fill="#eef2ea" fill-opacity="0.11"/><circle cx="300.9" cy="527.9" r="0.77" fill="#eef2ea" fill-opacity="0.07"/><circle cx="250.6" cy="247.6" r="1.09" fill="#eef2ea" fill-opacity="0.17"/><circle cx="320.6" cy="387.1" r="0.73" fill="#eef2ea" fill-opacity="0.20"/><circle cx="319.3" cy="160.8" r="0.43" fill="#eef2ea" fill-opacity="0.11"/><circle cx="200.1" cy="53.8" r="0.58" fill="#eef2ea" fill-opacity="0.15"/><circle cx="16.7" cy="449.9" r="0.82" fill="#eef2ea" fill-opacity="0.10"/><circle cx="114.6" cy="194.6" r="0.56" fill="#eef2ea" fill-opacity="0.18"/><circle cx="192.4" cy="290.4" r="0.42" fill="#eef2ea" fill-opacity="0.21"/><circle cx="125.0" cy="180.8" r="0.36" fill="#eef2ea" fill-opacity="0.22"/><circle cx="184.2" cy="503.9" r="1.04" fill="#eef2ea" fill-opacity="0.21"/><circle cx="313.2" cy="510.8" r="1.04" fill="#eef2ea" fill-opacity="0.19"/><circle cx="51.7" cy="289.1" r="0.76" fill="#eef2ea" fill-opacity="0.22"/><circle cx="301.0" cy="388.0" r="0.90" fill="#eef2ea" fill-opacity="0.11"/><circle cx="361.8" cy="355.2" r="0.62" fill="#eef2ea" fill-opacity="0.13"/><circle cx="376.2" cy="293.7" r="0.43" fill="#eef2ea" fill-opacity="0.08"/><circle cx="263.9" cy="310.7" r="1.03" fill="#eef2ea" fill-opacity="0.08"/><circle cx="157.9" cy="401.8" r="0.34" fill="#eef2ea" fill-opacity="0.07"/><circle cx="209.6" cy="146.7" r="0.39" fill="#eef2ea" fill-opacity="0.09"/><circle cx="242.7" cy="290.6" r="0.36" fill="#eef2ea" fill-opacity="0.06"/><circle cx="326.6" cy="355.1" r="0.44" fill="#eef2ea" fill-opacity="0.20"/><circle cx="8.4" cy="203.2" r="0.98" fill="#eef2ea" fill-opacity="0.17"/><circle cx="109.0" cy="492.0" r="0.78" fill="#eef2ea" fill-opacity="0.20"/><circle cx="342.8" cy="234.8" r="0.84" fill="#eef2ea" fill-opacity="0.14"/><circle cx="362.8" cy="440.6" r="0.88" fill="#eef2ea" fill-opacity="0.19"/><circle cx="383.3" cy="141.6" r="0.46" fill="#eef2ea" fill-opacity="0.18"/><circle cx="295.8" cy="283.9" r="0.69" fill="#eef2ea" fill-opacity="0.12"/><circle cx="339.0" cy="439.5" r="0.77" fill="#eef2ea" fill-opacity="0.06"/><circle cx="326.8" cy="253.1" r="0.45" fill="#eef2ea" fill-opacity="0.10"/><circle cx="265.5" cy="3.0" r="0.40" fill="#eef2ea" fill-opacity="0.10"/><circle cx="340.7" cy="412.3" r="1.08" fill="#eef2ea" fill-opacity="0.14"/><circle cx="219.6" cy="304.4" r="0.72" fill="#eef2ea" fill-opacity="0.14"/><circle cx="314.3" cy="526.3" r="0.63" fill="#eef2ea" fill-opacity="0.16"/><circle cx="118.2" cy="166.7" r="0.71" fill="#eef2ea" fill-opacity="0.15"/><circle cx="211.2" cy="539.1" r="0.43" fill="#eef2ea" fill-opacity="0.16"/><circle cx="381.9" cy="406.3" r="0.75" fill="#eef2ea" fill-opacity="0.11"/><circle cx="154.4" cy="517.0" r="1.02" fill="#eef2ea" fill-opacity="0.16"/><circle cx="345.1" cy="510.7" r="0.98" fill="#eef2ea" fill-opacity="0.12"/><circle cx="178.3" cy="439.3" r="0.60" fill="#eef2ea" fill-opacity="0.18"/><circle cx="184.9" cy="185.8" r="0.66" fill="#eef2ea" fill-opacity="0.07"/><circle cx="136.1" cy="229.2" r="0.31" fill="#eef2ea" fill-opacity="0.08"/><circle cx="99.9" cy="473.6" r="0.77" fill="#eef2ea" fill-opacity="0.10"/><circle cx="383.1" cy="142.4" r="0.71" fill="#eef2ea" fill-opacity="0.18"/><circle cx="265.5" cy="239.3" r="0.92" fill="#eef2ea" fill-opacity="0.13"/><circle cx="274.7" cy="271.2" r="1.08" fill="#eef2ea" fill-opacity="0.17"/><circle cx="35.1" cy="71.5" r="1.07" fill="#eef2ea" fill-opacity="0.09"/><circle cx="10.0" cy="139.8" r="0.68" fill="#eef2ea" fill-opacity="0.21"/><circle cx="153.3" cy="399.4" r="0.97" fill="#eef2ea" fill-opacity="0.07"/><circle cx="235.0" cy="549.7" r="0.74" fill="#eef2ea" fill-opacity="0.14"/><circle cx="133.1" cy="522.3" r="1.08" fill="#eef2ea" fill-opacity="0.07"/><circle cx="212.3" cy="231.6" r="0.84" fill="#eef2ea" fill-opacity="0.07"/><circle cx="101.9" cy="153.9" r="0.68" fill="#eef2ea" fill-opacity="0.18"/><circle cx="329.4" cy="434.1" r="0.84" fill="#eef2ea" fill-opacity="0.06"/><circle cx="149.7" cy="369.1" r="0.54" fill="#eef2ea" fill-opacity="0.14"/><circle cx="347.6" cy="64.1" r="0.98" fill="#eef2ea" fill-opacity="0.07"/><circle cx="148.4" cy="499.8" r="0.46" fill="#eef2ea" fill-opacity="0.14"/><circle cx="160.0" cy="490.1" r="1.09" fill="#eef2ea" fill-opacity="0.10"/><circle cx="189.1" cy="494.0" r="0.74" fill="#eef2ea" fill-opacity="0.09"/><circle cx="291.7" cy="186.1" r="0.69" fill="#eef2ea" fill-opacity="0.05"/><circle cx="379.8" cy="362.8" r="1.04" fill="#eef2ea" fill-opacity="0.21"/><circle cx="102.7" cy="298.4" r="0.65" fill="#eef2ea" fill-opacity="0.18"/><circle cx="323.5" cy="126.2" r="0.52" fill="#eef2ea" fill-opacity="0.17"/><circle cx="158.1" cy="71.9" r="0.46" fill="#eef2ea" fill-opacity="0.15"/><circle cx="229.8" cy="530.0" r="0.73" fill="#eef2ea" fill-opacity="0.15"/><circle cx="57.2" cy="228.4" r="0.52" fill="#eef2ea" fill-opacity="0.17"/><circle cx="102.5" cy="118.3" r="0.59" fill="#eef2ea" fill-opacity="0.13"/><circle cx="129.9" cy="334.4" r="0.44" fill="#eef2ea" fill-opacity="0.20"/><circle cx="266.6" cy="295.2" r="0.35" fill="#eef2ea" fill-opacity="0.11"/><circle cx="265.0" cy="356.1" r="0.95" fill="#eef2ea" fill-opacity="0.20"/><circle cx="121.1" cy="272.5" r="0.56" fill="#eef2ea" fill-opacity="0.07"/><circle cx="53.8" cy="141.6" r="0.37" fill="#eef2ea" fill-opacity="0.14"/><circle cx="269.9" cy="310.8" r="0.85" fill="#eef2ea" fill-opacity="0.09"/><circle cx="76.6" cy="313.3" r="1.01" fill="#eef2ea" fill-opacity="0.12"/><circle cx="1.6" cy="11.1" r="0.54" fill="#eef2ea" fill-opacity="0.15"/><circle cx="32.5" cy="123.9" r="0.84" fill="#eef2ea" fill-opacity="0.22"/><circle cx="131.0" cy="331.8" r="0.71" fill="#eef2ea" fill-opacity="0.05"/><circle cx="126.7" cy="77.0" r="0.50" fill="#eef2ea" fill-opacity="0.18"/><circle cx="261.6" cy="22.6" r="0.36" fill="#eef2ea" fill-opacity="0.17"/><circle cx="39.6" cy="175.0" r="0.52" fill="#eef2ea" fill-opacity="0.06"/><circle cx="12.0" cy="76.7" r="0.62" fill="#eef2ea" fill-opacity="0.21"/><circle cx="245.1" cy="133.6" r="0.84" fill="#eef2ea" fill-opacity="0.10"/><circle cx="197.9" cy="177.6" r="1.06" fill="#eef2ea" fill-opacity="0.11"/><circle cx="308.6" cy="353.9" r="0.97" fill="#eef2ea" fill-opacity="0.15"/><circle cx="334.2" cy="223.6" r="0.84" fill="#eef2ea" fill-opacity="0.16"/><circle cx="202.6" cy="311.6" r="0.73" fill="#eef2ea" fill-opacity="0.12"/><circle cx="345.0" cy="349.3" r="0.74" fill="#eef2ea" fill-opacity="0.06"/><circle cx="195.3" cy="96.7" r="0.47" fill="#eef2ea" fill-opacity="0.12"/><circle cx="209.6" cy="138.2" r="0.52" fill="#eef2ea" fill-opacity="0.14"/><circle cx="181.7" cy="222.6" r="0.38" fill="#eef2ea" fill-opacity="0.11"/><circle cx="251.3" cy="300.4" r="0.74" fill="#eef2ea" fill-opacity="0.19"/><circle cx="277.7" cy="377.9" r="0.32" fill="#eef2ea" fill-opacity="0.10"/><circle cx="262.0" cy="86.0" r="1.03" fill="#eef2ea" fill-opacity="0.07"/><circle cx="337.6" cy="119.4" r="0.97" fill="#eef2ea" fill-opacity="0.19"/><g filter="url(#fChalk)"><g fill="none" stroke="#eceee6" stroke-width="1.8" stroke-opacity="0.42" ><rect x="22" y="40" width="340" height="480" rx="3"/><line x1="22" y1="280" x2="362" y2="280"/><circle cx="192" cy="280" r="46"/><rect x="112" y="40" width="160" height="62"/><rect x="152" y="40" width="80" height="24"/><rect x="112" y="458" width="160" height="62"/><rect x="152" y="496" width="80" height="24"/><path d="M160,102 A34,34 0 0 0 224,102"/><path d="M160,458 A34,34 0 0 1 224,458"/></g><path d="M237,59 L251,73 M251,59 L237,73" stroke="#eceee6" stroke-width="2.2" stroke-opacity=".6" stroke-linecap="round"/><path d="M339,243 L353,257 M353,243 L339,257" stroke="#eceee6" stroke-width="2.2" stroke-opacity=".6" stroke-linecap="round"/><path d="M31,293 L45,307 M45,293 L31,307" stroke="#eceee6" stroke-width="2.2" stroke-opacity=".6" stroke-linecap="round"/><circle cx="140" cy="66" r="7" fill="none" stroke="#eceee6" stroke-width="2.2" stroke-opacity=".6"/><circle cx="334" cy="184" r="7" fill="none" stroke="#eceee6" stroke-width="2.2" stroke-opacity=".6"/><circle cx="40" cy="254" r="7" fill="none" stroke="#eceee6" stroke-width="2.2" stroke-opacity=".6"/><path d="M152,60 Q192,36 230,58" fill="none" stroke="#eceee6" stroke-width="2" stroke-opacity=".55" stroke-dasharray="6 5" stroke-linecap="round"/><path d="M221,52 L232,59 L220,64" fill="none" stroke="#eceee6" stroke-width="2" stroke-opacity=".55" stroke-linecap="round"/><path d="M340,196 C356,220 356,236 348,262" fill="none" stroke="#eceee6" stroke-width="2" stroke-opacity=".5" stroke-linecap="round"/><path d="M34,288 C24,272 26,262 34,246" fill="none" stroke="#eceee6" stroke-width="2" stroke-opacity=".5" stroke-dasharray="5 5" stroke-linecap="round"/></g><rect width="384" height="552" fill="url(#c_vig)"/><text id="marca_agua" class="bc" transform="translate(372,470) rotate(-90)" font-size="110" font-weight="800" font-style="italic" fill="none" stroke="#dfe7df" stroke-opacity=".12" stroke-width="1.5" letter-spacing="6">MÍSTER</text><g id="jugador" mask="url(#mPhoto)"><g id="foto" data-x="-2" data-y="26" data-w="388" data-h="485"/></g><rect id="panel" y="330" width="384" height="222" fill="url(#c_panel)"/></g><g id="marco"><path id="marco_exterior" d="M0.00,72.47C3.96,72.54 22.08,68.08 31.56,62.39C41.04,56.70 54.66,47.54 59.03,44.53C62.75,41.97 73.79,34.23 82.77,28.07C91.74,21.92 96.44,20.48 107.50,14.33C118.56,8.18 138.03,2.66 138.03,2.66C138.03,2.66 141.45,6.46 142.59,8.34C143.81,10.33 150.90,16.23 166.07,15.68C181.24,15.13 192.98,0.00 192.98,0.00C192.98,0.00 195.04,2.80 196.90,4.67C199.16,6.96 208.75,16.02 221.64,15.72C234.54,15.43 237.96,12.42 241.53,10.65C245.11,8.88 248.52,4.33 248.52,4.33C248.52,4.33 252.73,2.86 267.60,9.03C281.80,14.92 296.98,24.00 334.98,50.25C367.03,72.38 383.91,71.53 383.91,71.53C383.91,71.53 383.98,449.74 383.91,465.72C383.85,481.53 373.10,487.98 366.96,488.75C360.82,489.52 311.51,506.45 296.90,509.33C282.30,512.21 243.32,527.61 231.15,531.94C226.03,533.76 217.56,537.68 209.99,541.72C201.27,546.38 193.74,551.09 193.74,551.09C193.74,551.09 176.59,540.58 161.09,533.44C145.58,526.30 37.98,495.28 20.46,491.48C2.95,487.68 0.00,472.75 0.00,472.75L0.00,72.47Z" fill="none" stroke="url(#c_rim)" stroke-width="10" stroke-linejoin="round"/><path id="marco_bisel" d="M0.00,72.47C3.96,72.54 22.08,68.08 31.56,62.39C41.04,56.70 54.66,47.54 59.03,44.53C62.75,41.97 73.79,34.23 82.77,28.07C91.74,21.92 96.44,20.48 107.50,14.33C118.56,8.18 138.03,2.66 138.03,2.66C138.03,2.66 141.45,6.46 142.59,8.34C143.81,10.33 150.90,16.23 166.07,15.68C181.24,15.13 192.98,0.00 192.98,0.00C192.98,0.00 195.04,2.80 196.90,4.67C199.16,6.96 208.75,16.02 221.64,15.72C234.54,15.43 237.96,12.42 241.53,10.65C245.11,8.88 248.52,4.33 248.52,4.33C248.52,4.33 252.73,2.86 267.60,9.03C281.80,14.92 296.98,24.00 334.98,50.25C367.03,72.38 383.91,71.53 383.91,71.53C383.91,71.53 383.98,449.74 383.91,465.72C383.85,481.53 373.10,487.98 366.96,488.75C360.82,489.52 311.51,506.45 296.90,509.33C282.30,512.21 243.32,527.61 231.15,531.94C226.03,533.76 217.56,537.68 209.99,541.72C201.27,546.38 193.74,551.09 193.74,551.09C193.74,551.09 176.59,540.58 161.09,533.44C145.58,526.30 37.98,495.28 20.46,491.48C2.95,487.68 0.00,472.75 0.00,472.75L0.00,72.47Z" fill="none" stroke="url(#c_bevel)" stroke-width="3" stroke-linejoin="round"/><path id="marco_filete" d="M7.00,78.37C10.82,78.43 28.27,74.11 37.41,68.58C46.54,63.05 59.66,54.16 63.88,51.24C67.46,48.76 78.10,41.23 86.75,35.26C95.40,29.28 99.93,27.89 110.58,21.92C121.24,15.94 140.00,10.58 140.00,10.58C140.00,10.58 143.30,14.28 144.40,16.09C145.57,18.03 152.40,23.76 167.01,23.23C181.63,22.69 192.95,8.00 192.95,8.00C192.95,8.00 194.93,10.72 196.72,12.53C198.90,14.76 208.14,23.56 220.56,23.27C232.99,22.98 236.28,20.06 239.73,18.34C243.17,16.62 246.46,12.21 246.46,12.21C246.46,12.21 250.52,10.78 264.85,16.77C278.53,22.49 293.15,31.31 329.77,56.79C360.65,78.28 376.92,77.46 376.92,77.46C376.92,77.46 376.98,444.71 376.92,460.23C376.85,475.57 366.50,481.84 360.58,482.59C354.67,483.33 307.15,499.77 293.08,502.57C279.01,505.37 241.45,520.32 229.73,524.52C224.79,526.29 216.63,530.10 209.34,534.02C200.93,538.55 193.68,543.12 193.68,543.12C193.68,543.12 177.15,532.91 162.21,525.98C147.28,519.05 43.60,488.93 26.72,485.24C9.84,481.54 7.00,467.05 7.00,467.05L7.00,78.37Z" fill="none" stroke="#e7c8a0" stroke-opacity=".35" stroke-width=".9" stroke-linejoin="round"/></g><g id="cabecera"><text id="media" x="34" y="138" class="bc" font-weight="800" font-size="78" fill="#eceee6" letter-spacing="-1">64</text><text id="sigla" x="36" y="164" class="bc" font-weight="700" font-size="22" fill="#eceee6" letter-spacing="2">ENT</text><line id="separador" x1="36" y1="173" x2="68" y2="173" stroke="#eceee6" stroke-opacity=".45" stroke-width="1.2"/><text id="dorsal" x="36" y="193" class="bc" font-weight="600" font-size="16" fill="#eceee6" fill-opacity=".7" letter-spacing="1">1-3-2-1</text><g id="tendencia" transform="translate(36,203)"><rect width="44" height="20" rx="10" fill="#1e6b46"/><text x="22" y="14.5" class="bc" font-weight="700" font-size="14" fill="#eafff0" text-anchor="middle">▲ 1</text></g><use id="escudo_uso" href="#escudo" x="310" y="84" width="46" height="71" filter="url(#fShadow)"/></g>
  <text id="nombre" x="192" y="414" class="bc" font-weight="800" font-size="31" fill="#f3f1ea" letter-spacing="2.5" text-anchor="middle">MÍSTER</text>
  <line id="regla" x1="30" y1="425" x2="354" y2="425" stroke="url(#c_rule)" stroke-width="1.2"/>
  <path id="rombo" d="M192,420.5 L196.5,425 L192,429.5 L187.5,425 Z" fill="#e9e6da"/>
  <g id="stats"><text x="57.0" y="447" class="bc" font-weight="600" font-size="12.5" fill="#b9cdbf" letter-spacing="1.6" text-anchor="middle">ATA</text><text x="57.0" y="473" class="bc" font-weight="800" font-size="25" fill="#f3f1ea" text-anchor="middle">66</text><text x="111.0" y="447" class="bc" font-weight="600" font-size="12.5" fill="#b9cdbf" letter-spacing="1.6" text-anchor="middle">DEF</text><text x="111.0" y="473" class="bc" font-weight="800" font-size="25" fill="#f3f1ea" text-anchor="middle">65</text><line x1="84.0" y1="435" x2="84.0" y2="476" stroke="#b9cdbf" stroke-opacity=".25"/><text x="165.0" y="447" class="bc" font-weight="600" font-size="12.5" fill="#b9cdbf" letter-spacing="1.6" text-anchor="middle">TÁC</text><text x="165.0" y="473" class="bc" font-weight="800" font-size="25" fill="#f3f1ea" text-anchor="middle">66</text><line x1="138.0" y1="435" x2="138.0" y2="476" stroke="#b9cdbf" stroke-opacity=".25"/><text x="219.0" y="447" class="bc" font-weight="600" font-size="12.5" fill="#b9cdbf" letter-spacing="1.6" text-anchor="middle">GES</text><text x="219.0" y="473" class="bc" font-weight="800" font-size="25" fill="#f3f1ea" text-anchor="middle">63</text><line x1="192.0" y1="435" x2="192.0" y2="476" stroke="#b9cdbf" stroke-opacity=".25"/><text x="273.0" y="447" class="bc" font-weight="600" font-size="12.5" fill="#b9cdbf" letter-spacing="1.6" text-anchor="middle">MOT</text><text x="273.0" y="473" class="bc" font-weight="800" font-size="25" fill="#f3f1ea" text-anchor="middle">67</text><line x1="246.0" y1="435" x2="246.0" y2="476" stroke="#b9cdbf" stroke-opacity=".25"/><text x="327.0" y="447" class="bc" font-weight="600" font-size="12.5" fill="#b9cdbf" letter-spacing="1.6" text-anchor="middle">EXP</text><text x="327.0" y="473" class="bc" font-weight="800" font-size="25" fill="#f3f1ea" text-anchor="middle">55</text><line x1="300.0" y1="435" x2="300.0" y2="476" stroke="#b9cdbf" stroke-opacity=".25"/></g></g></g></svg>