<svg xmlns="http://www.w3.org/2000/svg" xmlns:xlink="http://www.w3.org/1999/xlink" viewBox="0 0 464 632" width="464" height="632"><title>Juwilata United — carta Entrenador IMÁN</title><defs><style>.bc{font-family:'Barlow Condensed','Arial Narrow',sans-serif}</style>

<symbol id="escudo" viewBox="0 0 160 246" preserveAspectRatio="xMidYMid meet"><image width="160" height="246" href="__ESCUDO__"/></symbol>
<clipPath id="card"><path d="M0.00,72.47C3.96,72.54 22.08,68.08 31.56,62.39C41.04,56.70 54.66,47.54 59.03,44.53C62.75,41.97 73.79,34.23 82.77,28.07C91.74,21.92 96.44,20.48 107.50,14.33C118.56,8.18 138.03,2.66 138.03,2.66C138.03,2.66 141.45,6.46 142.59,8.34C143.81,10.33 150.90,16.23 166.07,15.68C181.24,15.13 192.98,0.00 192.98,0.00C192.98,0.00 195.04,2.80 196.90,4.67C199.16,6.96 208.75,16.02 221.64,15.72C234.54,15.43 237.96,12.42 241.53,10.65C245.11,8.88 248.52,4.33 248.52,4.33C248.52,4.33 252.73,2.86 267.60,9.03C281.80,14.92 296.98,24.00 334.98,50.25C367.03,72.38 383.91,71.53 383.91,71.53C383.91,71.53 383.98,449.74 383.91,465.72C383.85,481.53 373.10,487.98 366.96,488.75C360.82,489.52 311.51,506.45 296.90,509.33C282.30,512.21 243.32,527.61 231.15,531.94C226.03,533.76 217.56,537.68 209.99,541.72C201.27,546.38 193.74,551.09 193.74,551.09C193.74,551.09 176.59,540.58 161.09,533.44C145.58,526.30 37.98,495.28 20.46,491.48C2.95,487.68 0.00,472.75 0.00,472.75L0.00,72.47Z"/></clipPath>
<linearGradient id="gPhotoFade" x1="0" y1="0" x2="0" y2="1"><stop offset="0" stop-color="#fff"/><stop offset=".78" stop-color="#fff"/><stop offset="1" stop-color="#000"/></linearGradient>
<mask id="mPhoto" maskContentUnits="objectBoundingBox"><rect width="1" height="1" fill="url(#gPhotoFade)"/></mask>
<linearGradient id="gFadeDown" x1="0" y1="0" x2="0" y2="1"><stop offset="0" stop-color="#fff"/><stop offset=".75" stop-color="#000"/></linearGradient>
<mask id="mFadeDown" maskContentUnits="objectBoundingBox"><rect width="1" height="1" fill="url(#gFadeDown)"/></mask>
<filter id="fShadow" x="-20%" y="-20%" width="140%" height="140%"><feDropShadow dx="0" dy="1.5" stdDeviation="1.5" flood-color="#000" flood-opacity=".4"/></filter>
<filter id="fCard" x="-20%" y="-20%" width="140%" height="140%"><feDropShadow dx="0" dy="14" stdDeviation="14" flood-color="#000" flood-opacity=".55"/></filter>
<filter id="fGlow" x="-20%" y="-20%" width="140%" height="140%"><feGaussianBlur stdDeviation="4"/></filter>
<filter id="fSoft" x="-50%" y="-50%" width="200%" height="200%"><feGaussianBlur stdDeviation="1.2"/></filter><linearGradient id="c_base" x1="0" y1="0" x2=".5" y2="1"><stop offset="0" stop-color="#fbfbfa"/><stop offset=".5" stop-color="#e7e9eb"/><stop offset="1" stop-color="#c6cbd0"/></linearGradient><linearGradient id="c_shine" x1="0" y1="0" x2="1" y2="1"><stop offset="0" stop-color="#fff" stop-opacity="0"/><stop offset=".42" stop-color="#fff" stop-opacity="0"/><stop offset=".5" stop-color="#fff" stop-opacity=".55"/><stop offset=".58" stop-color="#fff" stop-opacity="0"/><stop offset="1" stop-color="#fff" stop-opacity="0"/></linearGradient><radialGradient id="c_vig" cx="192" cy="240" r="330" gradientUnits="userSpaceOnUse"><stop offset=".6" stop-color="#6d747b" stop-opacity="0"/><stop offset="1" stop-color="#6d747b" stop-opacity=".35"/></radialGradient><radialGradient id="gMagG" cx=".35" cy=".3" r=".75"><stop offset="0" stop-color="#c0425a"/><stop offset=".6" stop-color="#7d1a2f"/><stop offset="1" stop-color="#4a0916"/></radialGradient><radialGradient id="gMagN" cx=".35" cy=".3" r=".75"><stop offset="0" stop-color="#5b6068"/><stop offset=".6" stop-color="#23262b"/><stop offset="1" stop-color="#0f1113"/></radialGradient><filter id="fMag" x="-50%" y="-50%" width="200%" height="200%"><feDropShadow dx="1.2" dy="2" stdDeviation="1.4" flood-color="#000" flood-opacity=".35"/></filter><linearGradient id="c_panel" x1="0" y1="340" x2="0" y2="552" gradientUnits="userSpaceOnUse"><stop offset="0" stop-color="#1b1f24" stop-opacity="0"/><stop offset=".3" stop-color="#1b1f24" stop-opacity=".8"/><stop offset=".6" stop-color="#1b1f24" stop-opacity=".95"/><stop offset="1" stop-color="#15181c"/></linearGradient><linearGradient id="c_rule" x1="30" y1="0" x2="354" y2="0" gradientUnits="userSpaceOnUse"><stop offset="0" stop-color="#d8dde2" stop-opacity="0"/><stop offset=".5" stop-color="#d8dde2"/><stop offset="1" stop-color="#d8dde2" stop-opacity="0"/></linearGradient><linearGradient id="c_rim" x1="0" y1="0" x2="1" y2="1"><stop offset="0" stop-color="#9aa1a8"/><stop offset=".5" stop-color="#5f666d"/><stop offset="1" stop-color="#34393e"/></linearGradient><linearGradient id="c_bevel" x1="0" y1="0" x2="1" y2="1"><stop offset="0" stop-color="#ffffff"/><stop offset=".25" stop-color="#b9c0c7"/><stop offset=".5" stop-color="#f4f6f8"/><stop offset=".75" stop-color="#8d949b"/><stop offset="1" stop-color="#4c5258"/></linearGradient></defs><g transform="translate(40,36)"><g id="carta_entrenador"><path d="M0.00,72.47C3.96,72.54 22.08,68.08 31.56,62.39C41.04,56.70 54.66,47.54 59.03,44.53C62.75,41.97 73.79,34.23 82.77,28.07C91.74,21.92 96.44,20.48 107.50,14.33C118.56,8.18 138.03,2.66 138.03,2.66C138.03,2.66 141.45,6.46 142.59,8.34C143.81,10.33 150.90,16.23 166.07,15.68C181.24,15.13 192.98,0.00 192.98,0.00C192.98,0.00 195.04,2.80 196.90,4.67C199.16,6.96 208.75,16.02 221.64,15.72C234.54,15.43 237.96,12.42 241.53,10.65C245.11,8.88 248.52,4.33 248.52,4.33C248.52,4.33 252.73,2.86 267.60,9.03C281.80,14.92 296.98,24.00 334.98,50.25C367.03,72.38 383.91,71.53 383.91,71.53C383.91,71.53 383.98,449.74 383.91,465.72C383.85,481.53 373.10,487.98 366.96,488.75C360.82,489.52 311.51,506.45 296.90,509.33C282.30,512.21 243.32,527.61 231.15,531.94C226.03,533.76 217.56,537.68 209.99,541.72C201.27,546.38 193.74,551.09 193.74,551.09C193.74,551.09 176.59,540.58 161.09,533.44C145.58,526.30 37.98,495.28 20.46,491.48C2.95,487.68 0.00,472.75 0.00,472.75L0.00,72.47Z" fill="#000" filter="url(#fCard)"/><g id="fondo" clip-path="url(#card)"><rect width="384" height="552" fill="url(#c_base)"/><path d="M345,494 q22,-17 110,5" fill="none" stroke="#8a9199" stroke-opacity=".1" stroke-width="5.7" stroke-linecap="round"/><path d="M125,323 q44,3 70,-1" fill="none" stroke="#8a9199" stroke-opacity=".1" stroke-width="4.6" stroke-linecap="round"/><path d="M266,517 q58,2 87,-5" fill="none" stroke="#8a9199" stroke-opacity=".1" stroke-width="3.1" stroke-linecap="round"/><path d="M29,252 q33,-5 114,1" fill="none" stroke="#8a9199" stroke-opacity=".1" stroke-width="5.2" stroke-linecap="round"/><path d="M100,32 q33,-15 91,10" fill="none" stroke="#8a9199" stroke-opacity=".1" stroke-width="5.7" stroke-linecap="round"/><path d="M82,467 q52,9 114,5" fill="none" stroke="#8a9199" stroke-opacity=".1" stroke-width="6.2" stroke-linecap="round"/><path d="M140,510 q58,-14 105,4" fill="none" stroke="#8a9199" stroke-opacity=".1" stroke-width="4.8" stroke-linecap="round"/><path d="M200,265 q57,0 110,-3" fill="none" stroke="#8a9199" stroke-opacity=".1" stroke-width="6.5" stroke-linecap="round"/><path d="M326,251 q43,17 103,-0" fill="none" stroke="#8a9199" stroke-opacity=".1" stroke-width="3.9" stroke-linecap="round"/><g stroke="#9aa3ac" stroke-opacity=".12" stroke-width=".6"><line x1="0" y1="0" x2="0" y2="552"/><line x1="24" y1="0" x2="24" y2="552"/><line x1="48" y1="0" x2="48" y2="552"/><line x1="72" y1="0" x2="72" y2="552"/><line x1="96" y1="0" x2="96" y2="552"/><line x1="120" y1="0" x2="120" y2="552"/><line x1="144" y1="0" x2="144" y2="552"/><line x1="168" y1="0" x2="168" y2="552"/><line x1="192" y1="0" x2="192" y2="552"/><line x1="216" y1="0" x2="216" y2="552"/><line x1="240" y1="0" x2="240" y2="552"/><line x1="264" y1="0" x2="264" y2="552"/><line x1="288" y1="0" x2="288" y2="552"/><line x1="312" y1="0" x2="312" y2="552"/><line x1="336" y1="0" x2="336" y2="552"/><line x1="360" y1="0" x2="360" y2="552"/><line x1="384" y1="0" x2="384" y2="552"/><line x1="0" y1="0" x2="384" y2="0"/><line x1="0" y1="24" x2="384" y2="24"/><line x1="0" y1="48" x2="384" y2="48"/><line x1="0" y1="72" x2="384" y2="72"/><line x1="0" y1="96" x2="384" y2="96"/><line x1="0" y1="120" x2="384" y2="120"/><line x1="0" y1="144" x2="384" y2="144"/><line x1="0" y1="168" x2="384" y2="168"/><line x1="0" y1="192" x2="384" y2="192"/><line x1="0" y1="216" x2="384" y2="216"/><line x1="0" y1="240" x2="384" y2="240"/><line x1="0" y1="264" x2="384" y2="264"/><line x1="0" y1="288" x2="384" y2="288"/><line x1="0" y1="312" x2="384" y2="312"/><line x1="0" y1="336" x2="384" y2="336"/><line x1="0" y1="360" x2="384" y2="360"/><line x1="0" y1="384" x2="384" y2="384"/><line x1="0" y1="408" x2="384" y2="408"/><line x1="0" y1="432" x2="384" y2="432"/><line x1="0" y1="456" x2="384" y2="456"/><line x1="0" y1="480" x2="384" y2="480"/><line x1="0" y1="504" x2="384" y2="504"/><line x1="0" y1="528" x2="384" y2="528"/><line x1="0" y1="552" x2="384" y2="552"/></g><g fill="none" stroke="#28313b" stroke-width="1.8" stroke-opacity="0.55" ><rect x="22" y="40" width="340" height="480" rx="3"/><line x1="22" y1="280" x2="362" y2="280"/><circle cx="192" cy="280" r="46"/><rect x="112" y="40" width="160" height="62"/><rect x="152" y="40" width="80" height="24"/><rect x="112" y="458" width="160" height="62"/><rect x="152" y="496" width="80" height="24"/><path d="M160,102 A34,34 0 0 0 224,102"/><path d="M160,458 A34,34 0 0 1 224,458"/></g><g fill="none" stroke="#b0283c" stroke-width="2.4" stroke-linecap="round" stroke-opacity=".75"><path d="M42,340 C30,310 52,290 44,256" stroke-dasharray="7 6"/><path d="M37,264 L44,254 L51,265"/><path d="M334,330 C316,290 350,250 340,204"/><path d="M333,214 L340,202 L347,214"/><path d="M150,70 Q192,40 236,70" stroke-dasharray="5 5"/><path d="M228,62 L237,71 L225,74"/></g><g filter="url(#fMag)"><circle cx="42" cy="352" r="9" fill="url(#gMagG)"/><circle cx="39.5" cy="349" r="2.7" fill="#fff" fill-opacity=".35"/></g><g filter="url(#fMag)"><circle cx="40" cy="242" r="9" fill="url(#gMagG)"/><circle cx="37.5" cy="239" r="2.7" fill="#fff" fill-opacity=".35"/></g><g filter="url(#fMag)"><circle cx="350" cy="190" r="9" fill="url(#gMagG)"/><circle cx="347.5" cy="187" r="2.7" fill="#fff" fill-opacity=".35"/></g><g filter="url(#fMag)"><circle cx="334" cy="342" r="9" fill="url(#gMagG)"/><circle cx="331.5" cy="339" r="2.7" fill="#fff" fill-opacity=".35"/></g><g filter="url(#fMag)"><circle cx="192" cy="76" r="9" fill="url(#gMagG)"/><circle cx="189.5" cy="73" r="2.7" fill="#fff" fill-opacity=".35"/></g><g filter="url(#fMag)"><circle cx="116" cy="62" r="8" fill="url(#gMagN)"/><circle cx="113.5" cy="59" r="2.4" fill="#fff" fill-opacity=".35"/></g><g filter="url(#fMag)"><circle cx="268" cy="62" r="8" fill="url(#gMagN)"/><circle cx="265.5" cy="59" r="2.4" fill="#fff" fill-opacity=".35"/></g><g filter="url(#fMag)"><circle cx="362" cy="272" r="8" fill="url(#gMagN)"/><circle cx="359.5" cy="269" r="2.4" fill="#fff" fill-opacity=".35"/></g><g filter="url(#fMag)"><circle cx="24" cy="300" r="8" fill="url(#gMagN)"/><circle cx="21.5" cy="297" r="2.4" fill="#fff" fill-opacity=".35"/></g><rect width="384" height="552" fill="url(#c_shine)"/><rect width="384" height="552" fill="url(#c_vig)"/><text id="marca_agua" class="bc" transform="translate(372,470) rotate(-90)" font-size="110" font-weight="800" font-style="italic" fill="none" stroke="#5d646b" stroke-opacity=".18" stroke-width="1.5" letter-spacing="6">MÍSTER</text><g id="jugador" mask="url(#mPhoto)"><g id="foto" data-x="-2" data-y="26" data-w="388" data-h="485"/></g><rect id="panel" y="330" width="384" height="222" fill="url(#c_panel)"/></g><g id="marco"><path id="marco_exterior" d="M0.00,72.47C3.96,72.54 22.08,68.08 31.56,62.39C41.04,56.70 54.66,47.54 59.03,44.53C62.75,41.97 73.79,34.23 82.77,28.07C91.74,21.92 96.44,20.48 107.50,14.33C118.56,8.18 138.03,2.66 138.03,2.66C138.03,2.66 141.45,6.46 142.59,8.34C143.81,10.33 150.90,16.23 166.07,15.68C181.24,15.13 192.98,0.00 192.98,0.00C192.98,0.00 195.04,2.80 196.90,4.67C199.16,6.96 208.75,16.02 221.64,15.72C234.54,15.43 237.96,12.42 241.53,10.65C245.11,8.88 248.52,4.33 248.52,4.33C248.52,4.33 252.73,2.86 267.60,9.03C281.80,14.92 296.98,24.00 334.98,50.25C367.03,72.38 383.91,71.53 383.91,71.53C383.91,71.53 383.98,449.74 383.91,465.72C383.85,481.53 373.10,487.98 366.96,488.75C360.82,489.52 311.51,506.45 296.90,509.33C282.30,512.21 243.32,527.61 231.15,531.94C226.03,533.76 217.56,537.68 209.99,541.72C201.27,546.38 193.74,551.09 193.74,551.09C193.74,551.09 176.59,540.58 161.09,533.44C145.58,526.30 37.98,495.28 20.46,491.48C2.95,487.68 0.00,472.75 0.00,472.75L0.00,72.47Z" fill="none" stroke="url(#c_rim)" stroke-width="9" stroke-linejoin="round"/><path id="marco_bisel" d="M0.00,72.47C3.96,72.54 22.08,68.08 31.56,62.39C41.04,56.70 54.66,47.54 59.03,44.53C62.75,41.97 73.79,34.23 82.77,28.07C91.74,21.92 96.44,20.48 107.50,14.33C118.56,8.18 138.03,2.66 138.03,2.66C138.03,2.66 141.45,6.46 142.59,8.34C143.81,10.33 150.90,16.23 166.07,15.68C181.24,15.13 192.98,0.00 192.98,0.00C192.98,0.00 195.04,2.80 196.90,4.67C199.16,6.96 208.75,16.02 221.64,15.72C234.54,15.43 237.96,12.42 241.53,10.65C245.11,8.88 248.52,4.33 248.52,4.33C248.52,4.33 252.73,2.86 267.60,9.03C281.80,14.92 296.98,24.00 334.98,50.25C367.03,72.38 383.91,71.53 383.91,71.53C383.91,71.53 383.98,449.74 383.91,465.72C383.85,481.53 373.10,487.98 366.96,488.75C360.82,489.52 311.51,506.45 296.90,509.33C282.30,512.21 243.32,527.61 231.15,531.94C226.03,533.76 217.56,537.68 209.99,541.72C201.27,546.38 193.74,551.09 193.74,551.09C193.74,551.09 176.59,540.58 161.09,533.44C145.58,526.30 37.98,495.28 20.46,491.48C2.95,487.68 0.00,472.75 0.00,472.75L0.00,72.47Z" fill="none" stroke="url(#c_bevel)" stroke-width="3.4" stroke-linejoin="round"/><path id="marco_filete" d="M7.00,78.37C10.82,78.43 28.27,74.11 37.41,68.58C46.54,63.05 59.66,54.16 63.88,51.24C67.46,48.76 78.10,41.23 86.75,35.26C95.40,29.28 99.93,27.89 110.58,21.92C121.24,15.94 140.00,10.58 140.00,10.58C140.00,10.58 143.30,14.28 144.40,16.09C145.57,18.03 152.40,23.76 167.01,23.23C181.63,22.69 192.95,8.00 192.95,8.00C192.95,8.00 194.93,10.72 196.72,12.53C198.90,14.76 208.14,23.56 220.56,23.27C232.99,22.98 236.28,20.06 239.73,18.34C243.17,16.62 246.46,12.21 246.46,12.21C246.46,12.21 250.52,10.78 264.85,16.77C278.53,22.49 293.15,31.31 329.77,56.79C360.65,78.28 376.92,77.46 376.92,77.46C376.92,77.46 376.98,444.71 376.92,460.23C376.85,475.57 366.50,481.84 360.58,482.59C354.67,483.33 307.15,499.77 293.08,502.57C279.01,505.37 241.45,520.32 229.73,524.52C224.79,526.29 216.63,530.10 209.34,534.02C200.93,538.55 193.68,543.12 193.68,543.12C193.68,543.12 177.15,532.91 162.21,525.98C147.28,519.05 43.60,488.93 26.72,485.24C9.84,481.54 7.00,467.05 7.00,467.05L7.00,78.37Z" fill="none" stroke="#ffffff" stroke-opacity=".6" stroke-width=".9" stroke-linejoin="round"/></g><g id="cabecera"><text id="media" x="34" y="138" class="bc" font-weight="800" font-size="78" fill="#1d2127" letter-spacing="-1">74</text><text id="sigla" x="36" y="164" class="bc" font-weight="700" font-size="22" fill="#1d2127" letter-spacing="2">ENT</text><line id="separador" x1="36" y1="173" x2="68" y2="173" stroke="#1d2127" stroke-opacity=".45" stroke-width="1.2"/><text id="dorsal" x="36" y="193" class="bc" font-weight="600" font-size="16" fill="#1d2127" fill-opacity=".7" letter-spacing="1">1-3-2-1</text><g id="tendencia" transform="translate(36,203)"><rect width="44" height="20" rx="10" fill="#1e6b46"/><text x="22" y="14.5" class="bc" font-weight="700" font-size="14" fill="#eafff0" text-anchor="middle">▲ 2</text></g><use id="escudo_uso" href="#escudo" x="310" y="84" width="46" height="71" filter="url(#fShadow)"/></g>
  <text id="nombre" x="192" y="414" class="bc" font-weight="800" font-size="31" fill="#f4f6f8" letter-spacing="2.5" text-anchor="middle">MÍSTER</text>
  <line id="regla" x1="30" y1="425" x2="354" y2="425" stroke="url(#c_rule)" stroke-width="1.2"/>
  <path id="rombo" d="M192,420.5 L196.5,425 L192,429.5 L187.5,425 Z" fill="#d8dde2"/>
  <g id="stats"><text x="57.0" y="447" class="bc" font-weight="600" font-size="12.5" fill="#aeb6be" letter-spacing="1.6" text-anchor="middle">ATA</text><text x="57.0" y="473" class="bc" font-weight="800" font-size="25" fill="#f4f6f8" text-anchor="middle">76</text><text x="111.0" y="447" class="bc" font-weight="600" font-size="12.5" fill="#aeb6be" letter-spacing="1.6" text-anchor="middle">DEF</text><text x="111.0" y="473" class="bc" font-weight="800" font-size="25" fill="#f4f6f8" text-anchor="middle">75</text><line x1="84.0" y1="435" x2="84.0" y2="476" stroke="#aeb6be" stroke-opacity=".25"/><text x="165.0" y="447" class="bc" font-weight="600" font-size="12.5" fill="#aeb6be" letter-spacing="1.6" text-anchor="middle">TÁC</text><text x="165.0" y="473" class="bc" font-weight="800" font-size="25" fill="#f4f6f8" text-anchor="middle">76</text><line x1="138.0" y1="435" x2="138.0" y2="476" stroke="#aeb6be" stroke-opacity=".25"/><text x="219.0" y="447" class="bc" font-weight="600" font-size="12.5" fill="#aeb6be" letter-spacing="1.6" text-anchor="middle">GES</text><text x="219.0" y="473" class="bc" font-weight="800" font-size="25" fill="#f4f6f8" text-anchor="middle">73</text><line x1="192.0" y1="435" x2="192.0" y2="476" stroke="#aeb6be" stroke-opacity=".25"/><text x="273.0" y="447" class="bc" font-weight="600" font-size="12.5" fill="#aeb6be" letter-spacing="1.6" text-anchor="middle">MOT</text><text x="273.0" y="473" class="bc" font-weight="800" font-size="25" fill="#f4f6f8" text-anchor="middle">75</text><line x1="246.0" y1="435" x2="246.0" y2="476" stroke="#aeb6be" stroke-opacity=".25"/><text x="327.0" y="447" class="bc" font-weight="600" font-size="12.5" fill="#aeb6be" letter-spacing="1.6" text-anchor="middle">EXP</text><text x="327.0" y="473" class="bc" font-weight="800" font-size="25" fill="#f4f6f8" text-anchor="middle">67</text><line x1="300.0" y1="435" x2="300.0" y2="476" stroke="#aeb6be" stroke-opacity=".25"/></g></g></g></svg>